<svg xmlns="http://www.w3.org/2000/svg" viewBox="0 0 835.48 786.75"><defs><style>.cls-1{fill:#0d2a3e;}.cls-2{fill:#a4bed6;}</style></defs><title>brasao_2</title><g id="Camada_2" data-name="Camada 2"><g id="Camada_1-2" data-name="Camada 1"><path class="cls-1" d="M167.36,439.53,169.09,425q14.19-2.07,19.34-7.66t5-19.18l-1.27-132.72q-.12-10.11-2.37-13.56t-9.52-3.37c-1.27,0-2.95.09-5.06.22s-4,.32-5.68.54l-.65-1.25,2-13.93q5.37-.06,13,.16t15.8.29q8.22.06,15.17,0,25.29-.3,42.5-.82T286.87,232q12.31-1.09,22.72-2.48l1,1.88q-1.49,7.6-2.95,16.94T305.3,266.9c-.55,6.12-1,11.81-1.37,17.08l-15.15,1.45c.18-1.91.31-4.27.39-7.12s.09-5,.07-6.48a42.06,42.06,0,0,0-1.56-12.15,11,11,0,0,0-6.09-6.72q-4.62-2.16-14.41-2.67T240.63,250a128.66,128.66,0,0,0-14.85.81c-3.15.47-5.09,1.54-5.81,3.23s-1.15,4.55-1.31,8.55l-2.29,73.67-.47,66.37q.12,8.53,1.73,12.47t6.86,5.13q5.23,1.2,16.61,1.06a285.08,285.08,0,0,0,30-1.62q11.36-1.39,17.32-5.27a22,22,0,0,0,8.71-11.64q2.76-7.75,4.49-20.75l13.89-1.74,1,1.57q-2.1,9.82-4.28,25T308.58,435L307,436.91q-19-.42-37.77-.66t-34-.38q-15.18-.14-24,0-9.8.12-22.27,1.06A200.66,200.66,0,0,0,167.36,439.53ZM212,342.91l2.61-19,8.54-.1q6.31-.07,13.59,0c4.85.05,9.06,0,12.64,0s9.11-.47,16.58-1.31,14.77-1.7,21.93-2.62l1.29,1.55-4.2,18.7q-8.86-.19-22-.37c-8.74-.09-16.17-.12-22.28,0-4,0-8.68.37-14.05,1S216.44,342,212,342.91Z"/><path class="cls-1" d="M625.17,529.64l1.12-12.33a153.4,153.4,0,0,0,17-2.42q6-1.33,8.48-3.74a8,8,0,0,0,2.46-6.19,43.53,43.53,0,0,0-.72-6.95,49.16,49.16,0,0,0-2.3-8.19l-10.84-34.31c-3.8-.16-9.12-.21-16-.12l-16.9.2q-9.18.11-19.11,1.17c-6.63.71-11.73,1.31-15.31,1.77l-11.29,33q-2.75,8.57-2.7,12.35.07,7,4.7,9.91t14.41,2.83l18-.22.64,1.26-1.73,13.61c-8.85-.74-16.67-1.22-23.4-1.46s-13.6-.31-20.55-.23q-7.59.09-15.64.35t-19.11,1l2.35-14.89q8.83-1,14.15-6.18t10.21-18.44l59.68-162.22,19.85-5.61,2.52,0q4.29,14.81,8.08,27.88t8.9,29.92q5.09,16.83,10.85,35.73t12,38.26q6.24,19.38,12.46,37Q681.44,504,688,508.67t20.13,5.76l.65,1.25-2.06,13q-12.33-.48-20.23-.54t-13.27,0q-12,.15-22.91,1.06t-24.14,2.67ZM578.63,443l27.8-.34q6.32-.08,15.16-.81t14.21-1.12l-25.95-82.49-2.21,0Z"/><path class="cls-2" d="M524.16,435.94c7.75,0,15.18-6.81,14.82-14.81s-6.51-14.82-14.82-14.82c-7.75,0-15.17,6.81-14.81,14.82s6.51,14.81,14.81,14.81Z"/><path class="cls-2" d="M334.47,382.23c7.75,0,15.17-6.82,14.82-14.82s-6.51-14.82-14.82-14.82c-7.75,0-15.17,6.82-14.82,14.82s6.51,14.82,14.82,14.82Z"/><path class="cls-2" d="M486,463q-.92,0-8.12-6.08T457.3,439.07A72,72,0,0,1,435.87,454a56.4,56.4,0,0,1-23.45,5.42q-14.66,0-25.6-4.73A37.83,37.83,0,0,1,370,441.21q-5.86-8.68-5.87-20.63a30.68,30.68,0,0,1,4.52-16.81A44.41,44.41,0,0,1,379,392.16a92,92,0,0,1,14.89-9v-1.57q-9.48-9.93-14-18.61a36.44,36.44,0,0,1-4.51-16.8,30.4,30.4,0,0,1,5.86-18.39,40.76,40.76,0,0,1,16-12.74,53.7,53.7,0,0,1,23-4.73q12.4,0,27.29,5.19l.46,3.38-10.83,16.69a7.85,7.85,0,0,0-1.13.11,6.59,6.59,0,0,1-1.13.12q-8.12-7.45-12.86-9.82a24.36,24.36,0,0,0-11-2.37q-9,0-14.43,4.63t-5.42,12.51a34.45,34.45,0,0,0,2.93,14.1q2.93,6.66,10.37,14.55t20.76,19.39l36.08,31.13q4.06-8.13,4.06-19.39,0-13.54-4.17-20.08t-13.42-6.54a33.29,33.29,0,0,0-6,.56q-3,.57-6.88,1.47l-3.15-9.7q6.54-3.83,11.95-4.06l46.46-2.71q10.59-.88,13.76-1.35c2.11-.3,3.3-.68,3.61-1.13l2.25,5.42-2.93,7a7.09,7.09,0,0,1-4.4,3.72q-2.82.79-11.39.79H468.58l-.68,1.36a27.79,27.79,0,0,1,7,9.81,30.53,30.53,0,0,1,2.49,12.28,48.71,48.71,0,0,1-2.26,14.33,54.42,54.42,0,0,1-6.76,14.09l31.57,26.62V456q-5.64,3.38-8.91,5.18A11.63,11.63,0,0,1,486,463Zm-67.22-17.81a53.8,53.8,0,0,0,17.71-2.93,43,43,0,0,0,14.77-8.57l-50.74-45.34a34.55,34.55,0,0,0-14.1,11.62,27.61,27.61,0,0,0-5.3,16.13,25.43,25.43,0,0,0,10.26,21.08Q401.59,445.16,418.73,445.16Z"/><path class="cls-2" d="M670.84,778.63c-2.33-3.63-4.84-7.11-7.44-10.54a50.15,50.15,0,0,1-4-10.34,117.89,117.89,0,0,1-3.1-23.22c-.86-18.46.21-37.84-7.82-55-6.3-13.46-17.83-26.33-33.25-28.56-14-2-29.15,6.32-30.34,21.45-1.15,14.68,15.17,26.91,28.1,17.66,3.24-2.32.1-8.1-3.55-6.17a11.38,11.38,0,0,1-13.84-2.56c-3.69-4.3-2.71-10.79.24-15.2,7.86-11.72,24.43-7.23,33.35.41,24,20.56,18.08,52.61,22,80.43.38,2.64.88,5.46,1.52,8.32a232.28,232.28,0,0,0-40-34.22,4.37,4.37,0,0,0-3-2c-5.65-3.78-11.38-7.41-17.2-10.78a359.25,359.25,0,0,0-49.46-23.61,303.76,303.76,0,0,1-28.7-19.81c-14.89-11.64-27.93-25-40.56-39-12.19-13.53-24.76-26.39-40.41-35.94a148,148,0,0,0-45.83-18.31,142.66,142.66,0,0,0-56.78-.72,4.33,4.33,0,0,0-.08,8.55c13.78,3.12,24.32,13,33.58,23.13,9.58,10.47,18.49,21.83,29.88,30.45,22.86,17.31,52.42,20.1,79.32,27.12,4.48,1.16,8.91,2.52,13.24,4.08,2.48,1.48,4.91,3,7.4,4.48l-1.87-.53c-3-.79-6-1.41-9-2.16-.06,0-.08-.08-.15-.09l-.31,0c-37.62-9.41-76-15.38-114.28-21.56-15.6-2.52-31.31-5-47-7.83a179.5,179.5,0,0,0-51-10.95c-9.09-2.35-18.12-4.9-27-7.83a163.85,163.85,0,0,1-19.31-7.7C223,598,221.88,586,220.2,574c-1.43-10.28-3.88-21.59-13.55-27.22-7.51-4.38-18.42-3.77-22.42,5-3.27,7.12-.53,16.32,7.55,18.19,4.25,1,6.26-6,2.09-7.41-3.94-1.3-4.06-7.26-1-9.65,5.93-4.57,14,2.33,16.67,7.4,3.89,7.45,4.58,16.5,6,24.66,1.37,7.8,3.14,15.52,4.8,23.27a108.15,108.15,0,0,1-31.72-24.09c-14.46-16.18-24.5-35.45-35.33-54.09a3.85,3.85,0,0,0-1.49-1.46c15.87-3.35,31-11.35,41.64-23.64,5.55-6.4,9.78-14.44,10.31-23,.56-9-5.59-13.21-14-11.17a74.7,74.7,0,0,0-25.2,11.9,106.8,106.8,0,0,0,10.94-30c4.6-23.63-.46-49.69-16.69-68a4.41,4.41,0,0,0-6.06-.8,99.14,99.14,0,0,0-25.45,28.5,71.51,71.51,0,0,0-25.2-20.28c-3.45-1.69-7.22-3-10.75-.71-3,2-4.71,5.68-6.27,8.79a60.44,60.44,0,0,0-5.63,18.57,59.41,59.41,0,0,1,4.9-26.17c1.38-3.19-3.24-5-4.85-2.08A47.14,47.14,0,0,0,74,413.85a49.77,49.77,0,0,0,3,16.27,54.31,54.31,0,0,1-5.26-8.83,52,52,0,0,1-4.24-16.15c-1.19-11.55,2.19-21.84,7.46-32,1.52-2.91-2.74-5-4.71-2.77-8.29,9.34-10.5,23.46-9.13,35.52,1.09,9.53,5.1,20.24,12.07,27.45-1-.45-2.06-1-3.12-1.37-4.83-1.88-12.94-6.15-18.07-3.57-6,3-3.37,12.47-2.56,17.58A112,112,0,0,0,54,464.27a40.27,40.27,0,0,0-4.53-.17c-10.83-3-17.7-15.8-21.43-25.5-2.8-7.3-4.62-15.45-2.9-23.23,1.47-6.6,5.63-11.29,10.24-16,2.17-2.21-1-4.8-3.2-4.2-8,2.13-12.45,10.57-14.28,18.07-2.3,9.43-.17,19.28,3.47,28.09,3.13,7.56,8.24,16.58,15.18,22.28-14-3.66-26-14-30.62-28.19-1-3.25-6.73-1.82-5.88,1.56A42.66,42.66,0,0,0,20,463.27a47.12,47.12,0,0,0,11,4.65,51.93,51.93,0,0,0-14,7.86c-3.46,2.81-4.56,6.54-2.83,10.7a48,48,0,0,0,6.06,10,63,63,0,0,0,7.31,8.09l.18.16c-5.95,2.74-11.77,6.18-15.92,10.69C5,522.84,9.09,532.28,15.86,538c14.62,12.25,37.28,14,55.34,11.23,12-1.87,23.21-5.89,34-10.94C96,551,93.09,567.85,98.35,582.8a4.27,4.27,0,0,0,5.5,2.27c22.22-8.12,33.28-28.61,41.39-49.33,16.92,34.06,37.92,67.13,73.46,83.85,5.07,2.39,10.29,4.45,15.58,6.34-2,.18-4,.3-6,.53-17.68,2-34.13,7.56-51.38,11.45-14.37,3.24-34.42,3.65-42.86-11.26a18.41,18.41,0,0,1,3.65-22.42c6.82-6.17,15.35-4.72,23-1.31,4.2,1.88,7.17-3.81,3.94-6.67C151.88,585,130.91,593,125,607.64c-6.53,16.07,3.81,31.61,18.88,37.55,18.71,7.39,38.06-.43,56.27-5.47a216.24,216.24,0,0,1,54.22-7.56c7.46,2,15,3.92,22.4,5.69,20.89,4.95,42,8.89,63.18,12.47,34.92,5.9,70.3,10.89,105.19,17.76-7.55,1.44-15,3.26-22.15,5.08-6,1.54-12.06,3.22-18.06,4.93-42.47,2.75-83.38-13.93-124.07-24-37.89-9.37-79.12-12.18-112.85,10.78-15.74,10.71-27.73,26.38-31.59,45.21A4.35,4.35,0,0,0,141.2,715c68.2-10.17,138,33.19,204.47,4a89.53,89.53,0,0,0,33.55-25.17c12.26-3.5,24.37-7.46,36.33-11.09,10.92-3.32,21.93-6.4,33.13-8.63,4.88-1,9.74-1.66,14.6-2.25a566.69,566.69,0,0,1,60.46,16.54c-17.52,2.74-34.24,13.15-50.08,20.63-11.75,5.55-26.64,11.6-39.86,8.19-4.8-1.24-11.74-5.27-8.5-11.16,3.5-6.35,11.61-5.06,17.25-7.64,2.18-1,2.71-4.83,0-5.67-11.91-3.69-30.68,6.05-26.25,20.43s24.1,14.65,35.86,12.28c29.14-5.87,54.34-32.63,84.58-32.41a371.39,371.39,0,0,1,35,15.1c2.21,1.1,4.34,2.3,6.5,3.44A126.41,126.41,0,0,0,547.92,710c-19.77,1.37-40,7.95-54.77,21.63-6.91,6.41-12.85,14.63-13.83,24.27-.92,9.06,2.33,18.36,10,23.59,18.71,12.71,41.2-2.53,56-14.16C564,750.72,582.18,732,606.6,728.67a285,285,0,0,1,59,53.94C668.35,785.9,673.1,782.15,670.84,778.63ZM154.74,393.49c12.82,16.73,16.34,38.82,12,59.34-4.47,21.13-16.68,39.69-31.14,55.42a87.85,87.85,0,0,1,19.13-114.76Zm-67.37,38a54,54,0,0,1,.36-11.29c1-7.13,3.19-14.82,7.12-20.93.8-1.25,1.21-1.5,2.63-1.15a32.1,32.1,0,0,1,5.62,2.35,65.56,65.56,0,0,1,9.13,5.24,74.7,74.7,0,0,1,12.57,11.16,97.35,97.35,0,0,0-9.55,27,91.75,91.75,0,0,0-1.61,16c-7.21-7.38-16.17-13.58-24.81-18.66-.13-1.43-.56-2.87-.8-4.27C87.72,435.13,87.5,433.32,87.37,431.51ZM56.6,437a5.53,5.53,0,0,0,.09-.81c.71.18,1.41.35,2.1.58a120.41,120.41,0,0,1,19.69,8,122,122,0,0,1,18.33,11.46c6.09,4.58,11.23,10,16.92,15a3.67,3.67,0,0,0,.46.27,99.89,99.89,0,0,0,8.5,31.13,86.72,86.72,0,0,0-14.24-3.81c-7.21-2.66-14.55-4.6-22-6.55-8.08-2.12-12.79-6.09-16.91-13.25A101.91,101.91,0,0,1,57.35,443.4C57.06,441.41,57.23,438.83,56.6,437ZM23.18,485.88c-.34-.61-.68-1.24-1-1.87-.23-.47-.44-1.86-.71-1.14.32-.85,2.05-1.78,2.72-2.27a57.64,57.64,0,0,1,17-8.25c4.84-1.53,9.8-2,14.77-2.53,3.73,9.55,8.63,19.64,17,25.49a111.57,111.57,0,0,0-36.19,5.74l-.28.1c-.78-.57-1.58-1.12-2.3-1.74a52.95,52.95,0,0,1-11-13.53Zm10.54,51.19c-4.34-1.63-19.67-8-15.42-14.72,1.83-2.88,6.35-5.14,9.22-6.78a73.85,73.85,0,0,1,9.09-4.28c.09,0,.17.09.26.12a4.13,4.13,0,0,0,4.72-1.22,3.77,3.77,0,0,0,.47-.89c15.39-5,31.93-5.52,48-4.3,6.79.52,13.65,1.35,20.42,2.46,6,2.07,12,4.29,18.09,5.86l1.17,1.82C101.29,531.62,66.77,549.48,33.72,537.07ZM105,575.28a41.49,41.49,0,0,1,7.36-32.37,37.61,37.61,0,0,1,14.1-12c3.31-1.56,6.9-2.45,10-4.39a7.12,7.12,0,0,0,1.2-1c.14.55.27,1.09.41,1.64.28,1.09.55,2.19.83,3.28a8.62,8.62,0,0,0,1.45,3.54C132.2,550.23,121.46,567.35,105,575.28Zm37.73-54.21-.52-.54.23-.34s.06-.07.08-.11c.31-.43.63-.85.91-1.33,7.64-13.23,16.88-24.25,30.1-32.26a77.13,77.13,0,0,1,9.8-5c2.74-1.17,7.23-3.69,10.29-3.37,6.63.7-2.26,16.21-4.37,19C178.34,511.35,160.23,519.33,142.71,521.07ZM374,686.81c-4,1.07-8,2.13-12,3.08-20,4.68-40.63,7.38-61.08,4.29-21.34-3.23-41.21-12.23-62-17.63-22.2-5.76-46.37-6.74-66.73,5.21-4.93,2.89.52,10,5.41,7.07,18.34-10.82,41.1-8.58,60.85-3.4,20,5.26,39.11,13.69,59.61,17,22,3.58,43.83.77,65.27-4.38-16.69,14.15-39,21-60.82,22.43-35.05,2.22-69.36-7.68-103.76-12.6-17.32-2.47-34.77-3.63-52.18-2,9.79-29.6,41.79-46.73,71.56-49.61C261.83,652,303.19,670.92,345.13,680a208.41,208.41,0,0,0,30.79,4.43C375.32,685.28,374.59,686,374,686.81Zm67.45-43c-13.91-3.37-28-7.77-39.85-16.11-12.11-8.56-21.2-20.47-31.18-31.26a125,125,0,0,0-14.14-13.33c29.63,2.18,53.27,24.59,75.21,42.95a354.4,354.4,0,0,0,30.24,22.29C454.87,646.81,448.05,645.39,441.41,643.78Zm49.48,12.62c-20.65-12.44-40.58-25.78-59.15-41.64-16.14-13.77-33.85-28.66-54-36.08a136.58,136.58,0,0,1,50.52,17.91c15.59,9.4,28,22.14,40.12,35.53a332.18,332.18,0,0,0,25.44,25.33C492.89,657.07,491.88,656.76,490.89,656.4Zm67.41,86.18c-7.56,6-14.83,12.44-22.61,18.21s-16.94,12.27-27,13.63C500.24,775.57,491,772,489,762.94c-2-8.86,3.12-17.28,9.2-23.27,12.69-12.5,30.41-18.83,47.82-20.79a130.25,130.25,0,0,1,32.65.85,217.09,217.09,0,0,0-28.15,3.81c-13.38,2.85-29.06,7.29-39.07,17.11-1.91,1.87-.31,5.93,2.59,4.48,6.38-3.16,12.36-6.94,19-9.63a126.32,126.32,0,0,1,20.4-6.21,280.22,280.22,0,0,1,34-4.8C576.94,728.94,567.23,735.44,558.3,742.58Z"/><path class="cls-2" d="M465.2,783.86a373.08,373.08,0,0,1-46.35,2.89,366.15,366.15,0,0,1-174.74-44.09"/><path class="cls-2" d="M719.65,644.72l-5.23-4a363.17,363.17,0,0,0,73-257.59c-20-200-199.06-346.3-399.06-326.34-159,15.94-287.76,131.62-320.5,287.85l-6.44-1.35c33.33-159.06,164.45-276.82,326.28-293C591.29,29.75,773.55,178.88,794,382.48A369.75,369.75,0,0,1,719.65,644.72Z"/><path class="cls-2" d="M792.61,631.63c-20.49-14.93-52.6-13.85-71,4.24a114.34,114.34,0,0,0-.64-60.43c-2.06-7.32-5.18-22.14-14.6-23.29C697.26,551,692,564.66,689.56,571.5c-6.1,16.84-4.47,36.19,3.46,52.14a59.38,59.38,0,0,0,42.63,31.82c20.6,3.77,42.83-1.76,57.89-16.66C795.8,636.56,794.94,633.33,792.61,631.63Zm-86.38-3.51c-9.35-11.68-13.25-27.23-11.81-42a52.85,52.85,0,0,1,6.77-21.2c.78-1.35,1.7-3.49,3-4.45,2.25-1.69,3.42.11,4.66,2.12,2.69,4.36,4.19,9.77,5.63,14.65,5.73,19.43,5.88,40.24,1.44,60A49,49,0,0,1,706.23,628.12Zm20,14.87c15.55-13.87,38.4-17,56.41-6.91C766.73,648.18,744.47,650.57,726.28,643Z"/><path class="cls-2" d="M747.63,515.05c-8.61-5.77-21.25-6.24-28.19,2.41-6.68,8.31-5.77,23.09,4.19,28.51,3.75,2,7.73-2.85,4.62-6-6.25-6.28-6-19.46,4.6-20.84,12.81-1.67,20.17,12,20.85,22.79.85,13.36-3.28,27.56-7.58,40.09A161,161,0,0,1,738,601.45c-1.51,3-3.14,6-4.81,8.93-1.54,2.71-3.55,5.27-3.92,8.41-.1.86,1,1.28,1.62.93,2.39-1.3,3.74-3.73,5.22-6,2-3,3.82-6.16,5.57-9.33a168.39,168.39,0,0,0,8.67-18.26c5.16-12.71,9.28-26.37,10.14-40.12C761.2,534.18,757.94,522,747.63,515.05Z"/><path class="cls-2" d="M85.08,371.15a9.54,9.54,0,0,0-2.46-4.23l-1.93-1.49a9.57,9.57,0,0,0-4.83-1.31l-1.51.1a7.11,7.11,0,0,0-3.64.82,7,7,0,0,0-3,2,10.44,10.44,0,0,0-2.77,6.69c.11.84.22,1.68.34,2.52a9.47,9.47,0,0,0,2.43,4.17l1.92,1.48a9.31,9.31,0,0,0,4.77,1.29l1.51.11a7.19,7.19,0,0,0,3.68-.83,7.06,7.06,0,0,0,3.08-2,10.55,10.55,0,0,0,2.8-6.76C85.31,372.84,85.2,372,85.08,371.15Z"/><path class="cls-2" d="M34.26,386.22c-12,0-12.07,18.72,0,18.72S46.33,386.22,34.26,386.22Z"/><path class="cls-2" d="M100.66,175.47c-4-6.59-10.54-12.5-18.78-11.18-7.1,1.13-11.85,7.29-14.51,13.54-3.24,7.58-3.62,16-3.5,24.15a195.66,195.66,0,0,0,3.19,29.77C70,249,74.4,266.41,74.87,284c-.07.24-.11.48-.19.71a3.18,3.18,0,0,0,.16,2.43,92.17,92.17,0,0,1-.92,13.85c-.24,1.6,2.1,2.34,2.48.69a92.28,92.28,0,0,0,2-12.91,3.6,3.6,0,0,0,2.88-2.23C94.91,253.54,122,211,100.66,175.47Zm-3.6,50.92c-2.63,9.61-6.68,18.71-10.75,27.78,2.06-17.23,2.75-34.61,0-51.8-.39-2.49-4.38-1.86-4.34.59.29,22.1.57,44.27-3.53,66-1.74-24.19-8.72-48.22-7.44-72.7.36-7,1.32-14.53,5.73-20.3,5.09-6.66,12.1-4.53,16.38,1.87C102.59,192,101.36,210.68,97.06,226.39Z"/><path class="cls-2" d="M266.78,137.89c-14.72-14.68-39.06-9.62-56.27-2.91-21.59,8.42-43.15,22.48-58.78,39.67a2.49,2.49,0,0,0,3,3.88l0,.07c2.45-1.5,4.85-3.07,7.23-4.67a112.81,112.81,0,0,1,15.34-5.9,164.53,164.53,0,0,1,22.72-5.71,161.08,161.08,0,0,1,46.66-1.08c3.81.43,3.7-5.43,0-5.92a147,147,0,0,0-48.06,1.91,142.42,142.42,0,0,0-22,6.37c8.52-6.11,17.12-12.12,26.62-16.84,15.34-7.64,39.51-16.8,55.34-5.66,6,4.2,10.38,12.24,8.65,19.64-1.89,8.1-10.56,11.65-17.89,13.15-20.81,4.23-42.15-2.47-63.06-2-17.52.42-36,5.16-47.19,19.64-1.08,1.4.76,3.4,2,2,13-14.67,34.05-16.5,52.39-15,21.33,1.7,46,8.73,66.61-.18,7.51-3.25,13.66-9.34,14.91-17.68S272.66,143.76,266.78,137.89Z"/><path class="cls-2" d="M182.27,92.68a17.11,17.11,0,0,0-9.73-12.32c-6.36-2.71-13.53-.87-19.28,2.47-27.39,16-29.35,52.8-29.75,80.72-.23,16.81-.08,35.85-10.92,49.8-1.38,1.78,1,4.31,2.54,2.55,17.49-19.31,13.85-49.07,16-73.07,1.19-13.2,4-26.5,11-38a47.71,47.71,0,0,1,12.2-13.73c4.6-3.38,12.18-6.92,17.31-2.6,4.4,3.72,4.3,10.93,2.11,15.76-3,6.55-9.06,11.21-14.45,15.7-3.8,3.17,1.61,8.38,5.38,5.39C174.75,117.39,185.32,106.77,182.27,92.68Z"/><path class="cls-2" d="M421.26,117.86c-3.31-8.07-10.78-13.07-19.12-15-9.18-2.07-22.23-2.69-30.6,2.29-7,4.21-11.45,17.43-2,21.69,3.8,1.7,7.35-2.52,4.49-5.82a5.46,5.46,0,0,1,0-6.92c2.59-3.13,7.69-3.47,11.42-3.67,7.4-.39,15.8-.25,22.2,4,13.1,8.69,5.68,27.6-6.08,33.37-15.61,7.63-33.45.5-47.22-7.64-16.67-9.85-32.65-21-49-31.41-15.12-9.64-34.22-22.69-52.9-15.38-2.27.89-1.32,4.59,1,3.72,11.23-4.15,22.55.4,32.27,6.29s19,13,28.43,19.51c9.91,6.85,19.85,13.67,29.9,20.31,8.95,5.92,18.42,11.58,28.87,14.38,17,4.57,39,.79,47.14-16.7C423.47,133.77,424.3,125.28,421.26,117.86Z"/><path class="cls-2" d="M146.11,264.36c-1.76-10.87-12.12-18.89-23-14.79-13.44,5.06-17.42,22-11.94,34.31,1.62,3.63,7.29,1.67,7.24-2-.1-6.6-1.84-13.93,2.31-19.75,3.24-4.56,9.79-7.07,14.18-2.54,9.75,10-2.86,25-10.22,32a69.07,69.07,0,0,1-16.26,11.59c-6,3.11-12.53,5.12-18.78,7.72C79.34,315.24,68.16,322.13,66.11,334a1,1,0,0,0,1.84.51c5-13.6,19.19-17.74,31.77-21.56,12-3.63,23-9.11,32.09-17.87C139.94,287.28,148,276.3,146.11,264.36Z"/><path class="cls-2" d="M361.52,645.82c-15.75-2.89-31.8-5.23-47.37-9-12.59-3-24.26-8.39-32.48-18.7a53.31,53.31,0,0,1-11.31-31.1,47.91,47.91,0,0,1,2.24-16.43c1.52-4.69,4.41-12.11,9.82-13.42,7.21-1.74,13.66,9.61,14.92,15.24,1.5,6.73-2.93,14.92-10.72,13-4.26-1.06-7.51,5.55-3.13,7.43,7.12,3.06,14.72.06,19.14-6.14,5.08-7.14,3.84-16.38-.15-23.73-3.71-6.82-10.52-14.33-18.93-14.21-7.92.12-13.49,7.05-16.51,13.65-12.3,26.87-.26,62.53,26.88,75.07,9.85,4.55,20.53,6.36,31.19,7.83C337.05,647,349,648.27,361,649.76,363.21,650,363.74,646.22,361.52,645.82Z"/><path class="cls-2" d="M780.13,327.78c-18.7-41.47-56.69-73.44-100.35-85.91-17.46-5-47.31-11.66-58.65,7.91-5.56,9.6-2.9,21.94,3.54,30.4,7.42,9.75,19.27,14.79,30.52,18.69,6.26,2.16,13.58,3.71,19.62.08a16.31,16.31,0,0,0,7.6-13.57c.14-12-14.41-19.51-23.78-11.94-2.57,2.08.2,6.52,3.2,5.5,3.58-1.21,8-1.28,10.83,1.65,3,3.14,2,8.73-1.43,11.2-3.84,2.76-9.23.94-13.27-.42a91.62,91.62,0,0,1-15.09-6.43c-8.2-4.54-15.59-11.61-16.58-21.42-.92-9.09,5.11-15.49,13.52-17.66s17.15-1,25.43.6A155.38,155.38,0,0,1,691.59,254a160,160,0,0,1,84.81,76C777.69,332.47,781.25,330.27,780.13,327.78Z"/><path class="cls-2" d="M829.8,322.74c-2.65-16.22-6-32.31-10-48.25-1-4-7.32-3.19-7.24,1,.24,13.18.48,26.41-.88,39.55-1.39,13.32-5.25,26-9.43,38.62-8.28,25.05-13,50.46-15.26,76.73-.31,3.62-.49,7.25-.74,10.88-6.59-32.06-16.87-63.4-28.77-93.77-1.08-2.74-5.09-3.16-6,0-7.23,25-11.17,53-1.24,77.82,8.79,22,31.33,38.16,34.37,62.49.27,2.17,3.65,2.29,3.5,0a47.08,47.08,0,0,0-1.61-9.41,3.93,3.93,0,0,0,5.22-3.33q.36-8.54.77-17.08c17.63-13.17,31.48-31.34,38.35-52.38C839.5,379,834.2,349.62,829.8,322.74Zm-74.88,35.94c11.41,31.93,19.31,64.78,25.89,98a4.11,4.11,0,0,0,1.26,6.41q.64,3.33,1.27,6.68c-6.63-14.62-18.51-27-25.49-41.58C747.46,406.44,749.34,381.62,754.92,358.68Zm70.17,37.18a92.87,92.87,0,0,1-14.87,32.65,103.23,103.23,0,0,1-17.12,18.63c1-17,2.44-34,5.42-50.76a280.88,280.88,0,0,1,9.9-38.6c4.05-12.36,8.06-24.65,9.84-37.58.56-4,.93-8.07,1.2-12.11,2.93,15.64,5.28,31.39,6.79,47.22C827.54,368.77,828.13,382.59,825.09,395.86Z"/><path class="cls-2" d="M730,214.8c1.66-1.27,2.32-4,.59-5.68a121.61,121.61,0,0,1-10.13-10.93c.23-9.13,1.75-18.28,2.52-27.35,1.16-13.56,0-26.67-6.52-38.85-6.3-11.84-15.85-22.15-25.45-31.4A213.32,213.32,0,0,0,658.6,75c-4.15-2.67-7.85,3.84-3.84,6.57,22.1,15,26.75,43.78,33.07,67.75a142.84,142.84,0,0,0,19.89,44.53,126.05,126.05,0,0,0-15.34-14.11,92.63,92.63,0,0,0-30.59-15.2c-21.26-6.23-44.56-7.47-64.12-18.64-4-2.27-8.31-7.11-13-7.4-4.29-.25-7,3.3-7.39,7.26-.41,4.54,1.62,9.1,3.36,13.17a75,75,0,0,0,7.74,13.87c11.73,16.6,29.89,28.9,50,32.54,14.28,2.59,28.6.1,42.95-.1,11.13-.15,21.75,2.19,32.19,5.46.16,1.37.34,2.74.6,4.1.72,3.78,5.32,3.27,6.83.56.94,1.21,1.89,2.4,2.8,3.68,2.77,3.88,8.84.53,6.49-3.79C730.14,215.06,730,214.94,730,214.8Zm-22.74-36c-6.6-12.3-10.33-25.6-13.69-39.06-3.28-13.09-6.92-26.68-13-38.75,2.13,1.89,4.24,3.82,6.27,5.82,9.08,8.92,18.08,18.72,23.83,30.19,8.3,16.56,4.73,34.49,3.05,52.33A114.3,114.3,0,0,1,707.21,178.77ZM657.75,199c-20.27.7-39.27-5.32-54.23-19.34A70.42,70.42,0,0,1,587,156.52c-.77-1.77-4.77-10.62-2-10.91,1.22-.13,4.91,3.5,6,4.22a66.84,66.84,0,0,0,6.49,3.68c17.84,8.89,37.94,10.84,57,15.59,11.14,2.77,22,6.58,31.74,12.78A112.84,112.84,0,0,1,698.44,191a112.21,112.21,0,0,0-13.4-3.47c-21.8-4.31-43.66-8.26-65.53-12.18-2.73-.48-3.94,3.58-1.16,4.22,20.08,4.66,40.16,9.27,60.32,13.62,7.72,1.67,15.59,3.31,22.83,6.53-2.54-.55-5.11-1-7.72-1.35C681.76,196.87,669.77,198.53,657.75,199Z"/><path class="cls-2" d="M564.28,75.69C555,70,546.57,62.21,538.55,54.82c-7.7-7.09-15-14.59-22.85-21.56C498.91,18.31,480,6.79,457.52,3.07,447.41,1.4,435.93.25,426,3.46c-7.45,2.4-14.59,7.86-14.36,16.43s7.79,13.8,15,16.7c11.09,4.47,23.68,6.1,35.3,8.75,13.71,3.14,27.49,6.09,41.15,9.44,3.66,3,7.25,6.12,10.78,9.31-21.79-.14-44.27,3.63-59.29,20-4.65,5.06-8.42,11.95-7.83,19a15.42,15.42,0,0,0,11.07,13.42c15.5,4.78,26.1-9.4,35.92-18.64a96.59,96.59,0,0,1,49.4-24.52c4.49-.8,2.59-7.64-1.88-6.85-.55.1-1.09.27-1.64.38-9-11.69-22.83-16.28-36.78-19.59-3.45-2.57-6.94-5.06-10.47-7.44a191.68,191.68,0,0,0-40.09-21c-1.74-.65-2.93,2.17-1.27,3a317.77,317.77,0,0,1,38.16,22.22l.26.2-.19,0-36.5-8.35c-9.24-2.12-20-3.19-28.19-8.3-3.08-1.91-6-4.79-5.68-8.71.37-4.26,4.42-6.77,8.05-8.13,8.83-3.32,19.63-2.22,28.72-.73,21.25,3.49,39.26,14.08,55.28,28.07C519.11,45.26,527,52.86,535.21,60a132.72,132.72,0,0,0,27.44,18.48A1.62,1.62,0,0,0,564.28,75.69Zm-77.55,19c-4.86,4.83-9.34,10.54-15.57,13.69-4.73,2.39-12.42,3.09-15.9-1.85-3.89-5.51.47-13.2,4.35-17.41,8.57-9.31,20.65-14.09,32.88-16.26,9.66-1.71,19.55-1.82,29.39-1.35l.39.36a101.09,101.09,0,0,0-19.16,9.63A102.88,102.88,0,0,0,486.73,94.67ZM527.4,64.6c-1.55-.1-3.12-.19-4.7-.27-1.75-1.74-3.51-3.46-5.35-5.12A44.73,44.73,0,0,1,527.4,64.6Z"/><path class="cls-2" d="M360.4,2.3c-7-4-15.84-2.15-22.84.93C322.81,9.72,312,22,302.59,34.66c-5.65,7.62-10.83,15.57-16.46,23.19-1.75,2.38-3.64,4.63-5.48,6.91A110.93,110.93,0,0,0,268.77,79.2c0,.08,0,.16-.09.23l-.51.62a.91.91,0,0,0,.62,1.52,2.4,2.4,0,0,0,3.59.52c1.38,1,3.66,1.16,4.69-.64,9.92-17.36,28.7-23.32,46.65-29.05,16.33-5.22,37.92-12.35,43.34-30.78C369.2,14.37,367.29,6.24,360.4,2.3Zm-.5,20C352.65,38.62,330,43.19,314.7,48c-3.38,1.07-6.85,2.26-10.3,3.6a258.32,258.32,0,0,1,33.06-22c2.36-1.35.29-4.58-2.08-3.55a165.62,165.62,0,0,0-33.52,20.1c8.06-11.24,16.3-22.79,27.61-31,6-4.31,13.28-8.5,20.82-8.74C359.84,6.15,363.5,14.11,359.9,22.25Z"/></g></g></svg>