<svg xmlns="http://www.w3.org/2000/svg" xmlns:xlink="http://www.w3.org/1999/xlink" viewBox="0 0 66.57 93.93"><defs><style>.cls-1,.cls-11,.cls-2{fill:none;stroke-miterlimit:10;}.cls-1,.cls-2{stroke:#a9bcd7;}.cls-1{stroke-width:0.25px;}.cls-11,.cls-2{stroke-width:0.5px;}.cls-3{fill:#acc1de;}.cls-4{clip-path:url(#clip-path);}.cls-5{clip-path:url(#clip-path-2);}.cls-6{clip-path:url(#clip-path-3);}.cls-7{clip-path:url(#clip-path-4);}.cls-8{clip-path:url(#clip-path-5);}.cls-9{clip-path:url(#clip-path-6);}.cls-10{clip-path:url(#clip-path-7);}.cls-11{stroke:#acc1de;}.cls-12{clip-path:url(#clip-path-8);}.cls-13{clip-path:url(#clip-path-9);}.cls-14{clip-path:url(#clip-path-10);}</style><clipPath id="clip-path"><path class="cls-1" d="M9.42,61.45,9,84.33H7.13l.55-21.21a2.15,2.15,0,0,1,.52-1A2.19,2.19,0,0,1,9.42,61.45Z"/></clipPath><clipPath id="clip-path-2"><path class="cls-1" d="M30.5,84.63l2.18,0-.42-22.43a2,2,0,0,0-.73-1.63,1.92,1.92,0,0,0-1.24-.35Z"/></clipPath><clipPath id="clip-path-3"><path class="cls-1" d="M13.6,55.27l1.76-.09.37-12.11L14,43.26Z"/></clipPath><clipPath id="clip-path-4"><path class="cls-1" d="M22.44,54.75l1.76-.09.37-12.11-1.76.19Z"/></clipPath><clipPath id="clip-path-5"><path class="cls-1" d="M22.42,68.12,24.17,68,24.5,57l-1.76.16Z"/></clipPath><clipPath id="clip-path-6"><path class="cls-1" d="M13.47,68.63l1.76-.08.32-11.09-1.76.17Z"/></clipPath><clipPath id="clip-path-7"><path class="cls-2" d="M12.8,92.32c0-1.26.22-9.28.62-14.65a7.29,7.29,0,0,1,.63-2.6,9,9,0,0,1,4.85-4.28A8.5,8.5,0,0,1,22.26,73a9.32,9.32,0,0,1,2.23,4.88,10.84,10.84,0,0,1,.2,2.27c0,1.61-.05,4-.07,5.62,0,2.27-.06,4.73-.09,7Z"/></clipPath><clipPath id="clip-path-8"><path class="cls-1" d="M17.79,34.23l.12-7.29-1.49.18-.23,7.17Z"/></clipPath><clipPath id="clip-path-9"><path class="cls-1" d="M21.06,33.74l.24-7.26-1.81.13L19.39,34Z"/></clipPath><clipPath id="clip-path-10"><path class="cls-1" d="M24.84,32.79l-.2-6.69-1.72.27v7.69l1.17-.21,0-1Z"/></clipPath></defs><title>igreja</title><g id="Camada_2" data-name="Camada 2"><g id="Camada_1-2" data-name="Camada 1"><rect class="cls-3" x="24.05" y="33.15" width="0.13" height="5.39" transform="translate(-0.2 0.14) rotate(-0.33)"/><polygon class="cls-3" points="14.13 40.61 14.45 34.23 14.59 34.24 14.29 39.91 15.25 37.79 15.34 35.14 15.47 35.14 15.38 37.82 15.38 37.84 14.13 40.61"/><polygon class="cls-3" points="34.04 93.53 33.59 47.52 27.51 48.1 27.45 47.45 34.25 46.79 34.7 93.52 34.04 93.53"/><polygon class="cls-3" points="40.84 93.4 39.75 50.81 34 51.47 33.92 50.82 40.39 50.08 41.5 93.39 40.84 93.4"/><polygon class="cls-3" points="0.32 92.83 0.34 92.17 41.13 93.27 53.37 90.63 52.75 71.14 42.3 60.67 42.21 58.28 40.03 56.23 40.48 55.75 42.86 57.99 42.95 60.39 53.4 70.85 54.05 91.16 41.19 93.93 40.74 93.92 0.32 92.83"/><polygon class="cls-3" points="9.72 92.76 11.02 33.96 14.59 33.43 15.64 34.56 24.07 33.62 24.14 34.27 15.38 35.26 14.34 34.13 11.66 34.53 10.38 92.77 9.72 92.76"/><polygon class="cls-3" points="4.66 92.62 5.94 49.28 10.98 48.8 11.04 49.46 6.58 49.88 5.32 92.64 4.66 92.62"/><polygon class="cls-3" points="0 92.49 1.11 53.5 6.12 52.91 6.2 53.56 1.76 54.09 0.66 92.51 0 92.49"/><g class="cls-4"><path class="cls-1" d="M9.76,62a1.59,1.59,0,0,0-1,.39,1.55,1.55,0,0,0-.48.77l-.6,21.57"/></g><path class="cls-1" d="M9.42,61.45,9,84.33H7.13l.55-21.21a2.15,2.15,0,0,1,.52-1A2.19,2.19,0,0,1,9.42,61.45Z"/><g class="cls-5"><polyline class="cls-1" points="31.23 85.53 30.95 60.99 32.88 60.95"/></g><path class="cls-1" d="M30.5,84.63l2.18,0-.42-22.43a2,2,0,0,0-.73-1.63,1.92,1.92,0,0,0-1.24-.35Z"/><g class="cls-6"><polygon class="cls-1" points="16.61 43.56 14.59 43.85 13.64 42.9 16.74 42.49 16.61 43.56"/><line class="cls-1" x1="14.13" y1="55.9" x2="14.59" y2="43.85"/></g><path class="cls-1" d="M13.6,55.27l1.76-.09.37-12.11L14,43.26Z"/><g class="cls-7"><polygon class="cls-1" points="25.45 43.04 23.43 43.33 22.48 42.39 25.58 41.97 25.45 43.04"/><line class="cls-1" x1="22.97" y1="55.39" x2="23.43" y2="43.33"/></g><path class="cls-1" d="M22.44,54.75l1.76-.09.37-12.11-1.76.19Z"/><g class="cls-8"><polygon class="cls-1" points="25.38 57.4 23.36 57.66 22.41 56.79 25.51 56.42 25.38 57.4"/><line class="cls-1" x1="22.95" y1="68.7" x2="23.36" y2="57.66"/></g><path class="cls-1" d="M22.42,68.12,24.17,68,24.5,57l-1.76.16Z"/><g class="cls-9"><polygon class="cls-1" points="16.44 57.92 14.42 58.17 13.46 57.3 16.57 56.94 16.44 57.92"/><line class="cls-1" x1="14.01" y1="69.21" x2="14.42" y2="58.17"/></g><path class="cls-1" d="M13.47,68.63l1.76-.08.32-11.09-1.76.17Z"/><polygon class="cls-3" points="31.09 47.41 30.87 37.81 31.85 37.92 27.1 32.46 27.4 32.2 32.29 37.83 32.27 38.36 31.28 38.25 31.49 47.4 31.09 47.41"/><rect class="cls-3" x="29.15" y="38.45" width="0.4" height="9.03" transform="translate(-0.08 0.06) rotate(-0.11)"/><polygon class="cls-3" points="29.99 47.44 29.81 37.76 28.45 35.98 28.77 35.74 30.2 37.62 30.39 47.43 29.99 47.44"/><g class="cls-10"><path class="cls-2" d="M25.23,78l-9.82-.23a7.94,7.94,0,0,1,4.17-5.87,5.62,5.62,0,0,1,3.69,1.23A5.92,5.92,0,0,1,25.23,78Z"/><polygon class="cls-2" points="25.21 79.03 20 78.94 15.72 78.85 15.22 92.42 25.61 92.66 25.21 79.03"/><polyline class="cls-2" points="20.03 92.39 20.05 79.23 20 78.94"/></g><path class="cls-2" d="M12.8,92.32c0-1.26.22-9.28.62-14.65a7.29,7.29,0,0,1,.63-2.6,9,9,0,0,1,4.85-4.28A8.5,8.5,0,0,1,22.26,73a9.32,9.32,0,0,1,2.23,4.88,10.84,10.84,0,0,1,.2,2.27c0,1.61-.05,4-.07,5.62,0,2.27-.06,4.73-.09,7Z"/><path class="cls-2" d="M26.44,93.2l.08-5.42L26.66,80a14.68,14.68,0,0,0-.17-2.24,13.15,13.15,0,0,0-1.32-4.17,11.34,11.34,0,0,0-6-4.93,9.77,9.77,0,0,0-4.28,2.26A10,10,0,0,0,12,75.58,9.65,9.65,0,0,0,11.67,78c-.08,2.87-.26,8-.47,14.69"/><polygon class="cls-3" points="53.71 91.22 53.71 90.56 65.87 90.44 64.48 69.21 51.13 69.38 51.12 68.72 65.1 68.55 66.57 91.09 53.71 91.22"/><ellipse class="cls-11" cx="59.76" cy="85.98" rx="2.93" ry="5.47" transform="translate(-4.35 3.19) rotate(-2.95)"/><polygon class="cls-3" points="14.71 33.73 14.06 33.63 15.51 23.21 25.68 21.78 26.68 32.54 26.02 32.6 25.09 22.53 16.09 23.79 14.71 33.73"/><polygon class="cls-3" points="28.71 34.2 27.56 25.44 25.34 22.06 25.67 21.85 27.94 25.3 29.1 34.15 28.71 34.2"/><g class="cls-12"><polyline class="cls-1" points="18.34 27.37 16.78 27.51 16.6 34.63"/><line class="cls-1" x1="16.15" y1="26.86" x2="16.78" y2="27.51"/></g><path class="cls-1" d="M17.79,34.23l.12-7.29-1.49.18-.23,7.17Z"/><g class="cls-13"><polyline class="cls-1" points="21.76 27.07 19.94 27.16 19.85 34.16"/><line class="cls-1" x1="19.31" y1="26.32" x2="19.94" y2="27.16"/></g><path class="cls-1" d="M21.06,33.74l.24-7.26-1.81.13L19.39,34Z"/><g class="cls-14"><polyline class="cls-1" points="25.06 26.45 23.42 26.86 22.55 26.11"/><line class="cls-1" x1="23.54" y1="34.58" x2="23.42" y2="26.86"/></g><path class="cls-1" d="M24.84,32.79l-.2-6.69-1.72.27v7.69l1.17-.21,0-1Z"/><path class="cls-3" d="M16.39,26.07l.1-1.43,1.87-.42-.1,1.59ZM16.86,25l-.05.65,1.07-.15.05-.74Z"/><path class="cls-3" d="M19.33,25.73l.12-1.54,2.1-.27,0,1.56Zm.49-1.19-.06.74,1.38-.16v-.75Z"/><path class="cls-3" d="M22.66,25.48l0-1.77,1.92-.36,0,1.69ZM23.07,24V25l1.17-.26,0-.9Z"/><path class="cls-3" d="M17.63,11.56,19.84,6l2.43-.22,1.87,4.66Zm2.58-5.05-1.74,4.37L23.41,10,21.93,6.35Z"/><path class="cls-3" d="M20.61,6.15l.1-3.63-1.64.24.12-1,1.52-.24L20.78.1l1-.1,0,1.32,1.34-.12v.91l-1.38.19-.06,3.77ZM21,2.22l-.1,3.64.48,0,.06-3.76,1.38-.19V1.49l-1.34.12,0-1.32L21,.34,21,1.74,19.43,2l-.06.46Z"/><path class="cls-3" d="M15.72,23.64,16,11.43l9-1.55L25,22.35l-2.38.32.1-11.05-4.15.72-.38,11Zm.81-11.76L16.26,23l1.42-.2.38-10.95,5.19-.9-.1,11.07,1.32-.18.06-11.37Z"/><polygon class="cls-3" points="26.72 24.1 26.6 14.2 24.62 10.34 24.97 10.16 26.99 14.11 27.11 24.1 26.72 24.1"/><polygon class="cls-3" points="25.88 22.78 25.84 14.23 24.7 12.15 25.05 11.96 26.23 14.13 26.28 22.77 25.88 22.78"/><path class="cls-3" d="M42,85.89l-.68-17a5.93,5.93,0,0,1,.3-2c.08-.26.15-.42.3-.43s.42.17.77,2.43v0l.49,17Zm-.06-19.12a1.38,1.38,0,0,0-.07.2,5.94,5.94,0,0,0-.29,1.92l.68,16.74h.64L42.4,68.92A8.13,8.13,0,0,0,41.91,66.77Z"/><path class="cls-3" d="M46.66,85.8v-.06c-.15-5.73-.32-12.88-.28-14.48,0-.85.12-1,.22-1s.22.06.47,1v0l.56,14.5Zm0-15.4a2.26,2.26,0,0,0-.11.87c0,1.58.13,8.69.28,14.4l.7,0-.55-14.36A2.94,2.94,0,0,0,46.62,70.4Z"/><path class="cls-3" d="M48.46,85.74v-.07c-.17-5.31-.36-12-.33-13.43,0-.8.12-.92.22-.93s.21,0,.47.92v0l.6,13.46Zm-.1-14.29a2.14,2.14,0,0,0-.09.8c0,1.47.15,8,.32,13.35l.7,0L48.7,72.26C48.5,71.61,48.4,71.48,48.36,71.45Z"/><path class="cls-3" d="M51.36,85.66v-.07c-.07-3.79-.14-8.54-.11-9.59,0-.62.08-.68.15-.69s.15,0,.31.67v0L52,85.63Zm.06-10.17a4.31,4.31,0,0,0,0,.51c0,1,0,5.74.11,9.52l.35,0L51.58,76A3.84,3.84,0,0,0,51.42,75.49Z"/><path class="cls-3" d="M52.41,85.6v-.06c-.08-3.52-.17-7.92-.14-8.9,0-.57.08-.63.15-.64s.16.08.3.63h0l.3,8.94Zm0-9.43a3.94,3.94,0,0,0,0,.47c0,1,.06,5.32.14,8.83l.35,0-.29-8.8A3,3,0,0,0,52.44,76.17Z"/><path class="cls-3" d="M50.19,81.61l.49,0,.2,9.48-.64.13Z"/><path class="cls-3" d="M18.47,19.9l.1-4,4.1-.93-.06,4.21ZM18.7,16l-.1,3.79L22.48,19l.06-3.94Z"/><path class="cls-3" d="M20.43,16.85l-1,1.82.13,0L20.84,17Z"/><path class="cls-3" d="M20.26,17.33l1.61-.51,0-.1L20.09,17Z"/><polygon class="cls-3" points="27.43 93.24 26.91 32.8 24.02 33.1 23.95 32.45 27.56 32.07 28.09 93.23 27.43 93.24"/></g></g></svg>